<svg height="512pt" viewBox="0 0 512 512" width="512pt" xmlns="http://www.w3.org/2000/svg"><path d="m482 60c16.542969 0 30-13.457031 30-30s-13.457031-30-30-30h-292.25c30.628906 24.769531 50.25 62.632812 50.25 105v302c0 9.988281-1.101562 19.722656-3.167969 29.097656h124.167969v-376.097656zm0 0"/><path d="m512 81.949219c-8.828125 5.117187-19.078125 8.050781-30 8.050781h-91v407h91c16.542969 0 30-13.457031 30-30zm0 0"/><path d="m105 240c-42.367188 0-80.230469-19.621094-105-50.25v217.25c0 57.898438 47.101562 105 105 105s105-47.101562 105-105v-217.25c-24.769531 30.628906-62.632812 50.25-105 50.25zm0 0"/><path d="m105 0c-57.898438 0-105 47.101562-105 105s47.101562 105 105 105 105-47.101562 105-105-47.101562-105-105-105zm0 165c-33.085938 0-60-26.914062-60-60s26.914062-60 60-60 60 26.914062 60 60-26.914062 60-60 60zm0 0"/><path d="m135 105c0 16.570312-13.429688 30-30 30s-30-13.429688-30-30 13.429688-30 30-30 30 13.429688 30 30zm0 0"/></svg>