<svg height="512pt" viewBox="0 0 512 512" width="512pt" xmlns="http://www.w3.org/2000/svg"><path d="m105 150c24.8125 0 45-20.1875 45-45s-20.1875-45-45-45-45 20.1875-45 45 20.1875 45 45 45zm0-60c8.269531 0 15 6.730469 15 15s-6.730469 15-15 15-15-6.730469-15-15 6.730469-15 15-15zm0 0"/><path d="m452 0h-347c-57.898438 0-105 47.101562-105 105v302c0 57.898438 47.101562 105 105 105 52.804688 0 96.621094-39.183594 103.925781-90h122.074219v75h121c33.085938 0 60-26.914062 60-60v-377c0-33.085938-26.914062-60-60-60zm-347 30c41.355469 0 75 33.644531 75 75s-33.644531 75-75 75-75-33.644531-75-75 33.644531-75 75-75zm0 452c-41.355469 0-75-33.644531-75-75v-228.597656c19.074219 19.484375 45.644531 31.597656 75 31.597656s55.925781-12.113281 75-31.597656v228.597656c0 41.355469-33.644531 75-75 75zm377-45c0 16.542969-13.457031 30-30 30h-91v-347h91c10.921875 0 21.171875-2.933594 30-8.050781zm-30-347h-121v302h-121v-287c0-29.355469-12.113281-55.925781-31.597656-75h273.597656c16.542969 0 30 13.457031 30 30s-13.457031 30-30 30zm0 0"/></svg>