<svg height="512pt" viewBox="-52 0 512 512.001" width="512pt" xmlns="http://www.w3.org/2000/svg"><path d="m407.355469 212.214844c0-53.488282-38.445313-98.554688-89.777344-108.113282-5.207031-58.269531-54.296875-104.101562-113.898437-104.101562-59.519532 0-108.679688 45.859375-113.898438 104.097656-51.03125 9.515625-89.78125 54.375-89.78125 108.117188 0 27.878906 10.453125 54.472656 29.433594 74.890625 18.980468 20.414062 44.746094 32.773437 72.550781 34.804687.160156.011719.316406.011719.476563.015625 7.375 9.667969 16.746093 17.027344 27.734374 21.5 12.4375 5.058594 26.421876 6.066407 40.445313 2.917969 6.085937-1.367188 12.113281-3.472656 18.039063-6.28125v156.066406c0 8.765625 6.714843 15.871094 15 15.871094 8.28125 0 15-7.105469 15-15.871094v-155.800781c11.101562 5.257813 22.46875 7.941406 33.554687 7.941406 8.558594-.003906 16.949219-1.601562 24.925781-4.84375 10.988282-4.472656 20.351563-11.828125 27.730469-21.488281 57.511719-3.9375 102.464844-52 102.464844-109.722656zm-141.5 103.421875c-14.5625 5.925781-31.824219 1.878906-48.597657-11.398438-2.648437-2.097656-5.929687-3.238281-9.308593-3.238281 0 0-7.539063.007812-8.335938-.015625-3.488281-.121094-6.902343 1.011719-9.65625 3.152344-8.425781 6.550781-17.378906 11.023437-25.890625 12.9375-8.140625 1.824219-15.730468 1.34375-22.566406-1.4375-12.257812-4.988281-21.191406-17.242188-25.207031-34.21875 14.726562-9.347657 29.675781-11.886719 41.9375-6.898438.605469.246094 1.226562.519531 1.84375.816407 4.523437 2.164062 9.832031 1.921874 14.140625-.644532 4.3125-2.5625 7.054687-7.113281 7.3125-12.121094.660156-12.867187 8.925781-25.230468 22.996094-34.769531 13.160156 9.859375 20.820312 22.15625 21.324218 34.597657.203125 5.039062 2.929688 9.636718 7.246094 12.242187 4.320312 2.601563 9.660156 2.859375 14.210938.683594.601562-.285157 1.214843-.558594 1.820312-.804688 12.257812-4.988281 27.210938-2.449219 41.9375 6.898438-4.015625 16.976562-12.949219 29.230469-25.207031 34.21875zm54.265625-26.757813c.949218-3.929687 1.707031-8.007812 2.25-12.226562.675781-5.21875-1.4375-10.414063-5.566406-13.679688-20.746094-16.425781-43.539063-23.4375-64.492188-20.234375-6.121094-17.734375-19.910156-33.757812-39.683594-45.558593-4.519531-2.699219-10.125-2.828126-14.765625-.347657-21.273437 11.386719-36.117187 27.5625-42.644531 45.929688-21-3.265625-43.863281 3.742187-64.667969 20.210937-4.128906 3.265625-6.242187 8.460938-5.566406 13.679688.542969 4.210937 1.300781 8.28125 2.246094 12.207031-33.160157-9.910156-57.230469-40.808594-57.230469-76.644531 0-44.101563 35.878906-79.984375 79.984375-79.984375 13.707031 0 27.265625 3.554687 39.210937 10.273437 7.21875 4.0625 16.363282 1.5 20.425782-5.722656 4.0625-7.21875 1.503906-16.363281-5.71875-20.425781-13.46875-7.574219-28.425782-12.214844-43.761719-13.644531 5.710937-41 41.035156-72.710938 83.539063-72.710938 46.519531 0 84.363281 37.847656 84.363281 84.367188 0 .3125-.011719.625-.015625.9375-.058594.402343-.109375.804687-.132813 1.21875-.039062.6875-.015625 1.367187.035157 2.035156-.789063 16.132812-6.113282 31.527344-15.542969 44.761718-4.804688 6.746094-3.230469 16.113282 3.515625 20.921876 2.640625 1.878906 5.679687 2.785156 8.691406 2.785156 4.6875 0 9.300781-2.191406 12.226562-6.296875 9.933594-13.941407 16.496094-29.65625 19.4375-46.226563 35.207032 8.542969 61.097657 40.28125 61.097657 77.710938 0 35.984375-24.03125 66.792968-57.234375 76.664062zm0 0"/></svg>