<svg height="512pt" viewBox="-66 0 512 512" width="512pt" xmlns="http://www.w3.org/2000/svg"><path d="m175 363.679688v133.320312c0 8.285156 6.714844 15 15 15s15-6.714844 15-15v-133.320312c-4.960938-.460938-9.964844-1.078126-15-1.875-5.035156.796874-10.039062 1.414062-15 1.875zm0 0"/><path d="m238.457031 242.765625c-6.527343-18.367187-21.367187-34.546875-42.644531-45.929687-1.828125-.980469-3.808594-1.546876-5.8125-1.71875-2.003906.171874-3.984375.738281-5.8125 1.71875-21.277344 11.382812-36.117188 27.5625-42.644531 45.929687-44.542969-16.765625-81.289063 20.734375-81.289063 48.675781 0 9.519532 43.246094 55.558594 129.570313 39.964844.058593.042969.117187.078125.175781.121094.058594-.042969.117188-.078125.175781-.121094 86.324219 15.59375 129.570313-30.445312 129.570313-39.964844 0-27.941406-36.746094-65.441406-81.289063-48.675781zm0 0"/><path d="m325.472656 107.339844c-1.769531 20.257812-8.847656 39.542968-20.765625 56.273437-2.929687 4.105469-7.542969 6.296875-12.230469 6.296875-3.011718 0-6.050781-.90625-8.691406-2.785156-6.746094-4.808594-8.316406-14.175781-3.511718-20.921875 10.242187-14.375 15.65625-31.304687 15.65625-48.953125 0-1.324219-.035157-2.648438-.097657-3.96875-6.617187-52.519531-51.546875-93.28125-105.832031-93.28125-45.234375 0-84.050781 28.398438-99.519531 68.300781 11.523437 2.242188 22.667969 6.316407 32.945312 12.097657 7.21875 4.0625 9.777344 13.207031 5.71875 20.425781-4.0625 7.226562-13.207031 9.785156-20.425781 5.722656-8.125-4.570313-16.996094-7.671875-26.152344-9.191406-47.011718 9.347656-82.566406 50.894531-82.566406 100.609375 0 26.003906 9.75 50.8125 27.457031 69.859375 1.742188 1.875 3.5625 3.652343 5.425781 5.378906 9.4375-33.308594 43.371094-64.597656 86.535157-64.597656 2.085937 0 4.171875.074219 6.253906.222656 10.707031-15.320313 25.867187-28.546875 44.359375-38.445313 12.519531-6.699218 27.449219-6.679687 39.9375.003907 18.492188 9.894531 33.652344 23.121093 44.355469 38.441406 2.085937-.148437 4.171875-.222656 6.253906-.222656 43.148437 0 77.074219 31.261719 86.527344 64.554687 20.265625-18.808594 32.894531-45.648437 32.894531-75.195312 0-39.074219-21.992188-73.320313-54.527344-90.625zm0 0"/></svg>